<svg xmlns="http://www.w3.org/2000/svg" viewBox="0 0 360 180" role="img" aria-label="Classic flying saucer">
  <defs>
    <linearGradient id="rim" x1="34" y1="98" x2="326" y2="98" gradientUnits="userSpaceOnUse">
      <stop offset="0" stop-color="#eaffff"/>
      <stop offset=".18" stop-color="#7df2ff"/>
      <stop offset=".5" stop-color="#8a82ff"/>
      <stop offset=".82" stop-color="#68dcff"/>
      <stop offset="1" stop-color="#fff0a6"/>
    </linearGradient>
    <linearGradient id="upper" x1="66" y1="84" x2="294" y2="84" gradientUnits="userSpaceOnUse">
      <stop offset="0" stop-color="#f5feff"/>
      <stop offset=".42" stop-color="#8fe9ef"/>
      <stop offset="1" stop-color="#3869bd"/>
    </linearGradient>
    <linearGradient id="lower" x1="70" y1="118" x2="290" y2="118" gradientUnits="userSpaceOnUse">
      <stop offset="0" stop-color="#163d5b"/>
      <stop offset=".55" stop-color="#18255a"/>
      <stop offset="1" stop-color="#090f2b"/>
    </linearGradient>
    <radialGradient id="dome" cx="42%" cy="25%" r="78%">
      <stop offset="0" stop-color="#ffffff"/>
      <stop offset=".38" stop-color="#b9fbff"/>
      <stop offset=".76" stop-color="#5f96dd"/>
      <stop offset="1" stop-color="#20316f"/>
    </radialGradient>
    <filter id="glow" x="-30%" y="-45%" width="160%" height="190%">
      <feGaussianBlur stdDeviation="5" result="blur"/>
      <feMerge>
        <feMergeNode in="blur"/>
        <feMergeNode in="SourceGraphic"/>
      </feMerge>
    </filter>
  </defs>

  <ellipse cx="180" cy="122" rx="128" ry="28" fill="#61eaff" opacity=".16"/>
  <ellipse cx="180" cy="101" rx="150" ry="34" fill="url(#rim)" filter="url(#glow)"/>
  <ellipse cx="180" cy="93" rx="122" ry="25" fill="url(#upper)" opacity=".96"/>
  <ellipse cx="180" cy="116" rx="104" ry="25" fill="url(#lower)" opacity=".96"/>
  <path d="M68 94c35-12 72-18 112-18s77 6 112 18c-32 8-69 12-112 12s-80-4-112-12Z" fill="#ffffff" opacity=".24"/>

  <ellipse cx="180" cy="69" rx="58" ry="38" fill="url(#dome)" stroke="#effeff" stroke-width="5"/>
  <path d="M134 68c14-25 38-38 72-33 15 2 28 8 38 18-31-7-68-2-110 15Z" fill="#ffffff" opacity=".42"/>

  <circle cx="86" cy="105" r="8" fill="#fff3a4"/>
  <circle cx="124" cy="111" r="7" fill="#85f4ff"/>
  <circle cx="180" cy="115" r="7" fill="#fff3a4"/>
  <circle cx="236" cy="111" r="7" fill="#85f4ff"/>
  <circle cx="274" cy="105" r="8" fill="#fff3a4"/>

  <path d="M96 134c37 19 132 19 168 0-15 19-43 31-84 31s-69-12-84-31Z" fill="#77efff" opacity=".2"/>
</svg>
